<svg width="360" height="129" viewBox="0 0 360 129" fill="none" xmlns="http://www.w3.org/2000/svg">
<g filter="url(#filter0_d_3159_5944)">
<path d="M64.6603 31.583C63.6859 30.5697 62.6531 29.8097 61.5618 29.303C60.5095 28.7574 59.2428 28.4845 57.7617 28.4845C56.3197 28.4845 55.053 28.7574 53.9617 29.303C52.9093 29.8097 52.0129 30.5307 51.2724 31.4661C50.5708 32.3625 50.0252 33.4149 49.6354 34.6231C49.2847 35.7923 49.1093 37.0201 49.1093 38.3062C49.1093 39.5924 49.3236 40.8201 49.7524 41.9894C50.1811 43.1196 50.7852 44.1135 51.5647 44.9709C52.3442 45.8284 53.2796 46.5105 54.3709 47.0171C55.4622 47.4848 56.6899 47.7187 58.054 47.7187C59.5351 47.7187 60.8018 47.4653 61.8541 46.9587C62.9064 46.413 63.8808 45.6335 64.7772 44.6202L68.5188 48.3618C67.1547 49.8818 65.5567 50.9731 63.7249 51.6357C61.932 52.2982 60.0223 52.6295 57.9956 52.6295C55.852 52.6295 53.8837 52.2788 52.0909 51.5772C50.337 50.8757 48.817 49.9013 47.5308 48.6541C46.2446 47.3679 45.2508 45.8479 44.5492 44.094C43.8477 42.3012 43.4969 40.3329 43.4969 38.1893C43.4969 36.0457 43.8477 34.0774 44.5492 32.2846C45.2508 30.4917 46.2251 28.9522 47.4723 27.6661C48.7585 26.3799 50.2785 25.386 52.0324 24.6845C53.8253 23.9439 55.813 23.5737 57.9956 23.5737C60.0223 23.5737 61.9515 23.9439 63.7834 24.6845C65.6542 25.386 67.2716 26.4773 68.6357 27.9584L64.6603 31.583ZM97.5993 51.928H92.3377V47.6602H92.2208C91.5582 49.1413 90.4084 50.3495 88.7715 51.2849C87.1345 52.1813 85.2443 52.6295 83.1006 52.6295C81.7365 52.6295 80.4503 52.4152 79.2421 51.9864C78.0339 51.5967 76.9621 50.9731 76.0267 50.1156C75.1302 49.2582 74.4092 48.1669 73.8636 46.8417C73.3179 45.4776 73.0451 43.8796 73.0451 42.0478V24.2168H78.3067V40.5863C78.3067 41.8724 78.4821 42.9832 78.8329 43.9186C79.1836 44.815 79.6513 45.5556 80.236 46.1402C80.8206 46.6858 81.4832 47.0951 82.2237 47.3679C83.0032 47.6018 83.8022 47.7187 84.6207 47.7187C85.712 47.7187 86.7253 47.5433 87.6607 47.1925C88.5961 46.8417 89.4146 46.2961 90.1161 45.5556C90.8177 44.7761 91.3633 43.8017 91.7531 42.6324C92.1428 41.4632 92.3377 40.0796 92.3377 38.4816V24.2168H97.5993V51.928ZM105.531 24.2168H110.792V28.4845H110.909C111.26 27.744 111.728 27.0814 112.312 26.4968C112.897 25.8732 113.54 25.347 114.241 24.9183C114.982 24.4896 115.781 24.1583 116.638 23.9245C117.496 23.6516 118.353 23.5152 119.211 23.5152C120.068 23.5152 120.848 23.6321 121.549 23.866L121.315 29.5369C120.887 29.4199 120.458 29.3225 120.029 29.2445C119.601 29.1666 119.172 29.1276 118.743 29.1276C116.171 29.1276 114.203 29.8487 112.838 31.2907C111.474 32.7328 110.792 34.9739 110.792 38.0139V51.928H105.531V24.2168ZM127.578 24.2168H132.839V51.928H127.578V24.2168ZM126.35 14.2781C126.35 13.2258 126.72 12.3294 127.461 11.5889C128.24 10.8094 129.156 10.4196 130.209 10.4196C131.261 10.4196 132.157 10.8094 132.898 11.5889C133.677 12.3294 134.067 13.2258 134.067 14.2781C134.067 15.3305 133.677 16.2464 132.898 17.0259C132.157 17.7664 131.261 18.1367 130.209 18.1367C129.156 18.1367 128.24 17.7664 127.461 17.0259C126.72 16.2464 126.35 15.3305 126.35 14.2781ZM145.481 38.0724C145.481 39.4755 145.695 40.7811 146.124 41.9894C146.553 43.1586 147.157 44.172 147.936 45.0294C148.716 45.8479 149.671 46.5105 150.801 47.0171C151.931 47.4848 153.198 47.7187 154.601 47.7187C156.004 47.7187 157.271 47.4848 158.401 47.0171C159.531 46.5105 160.486 45.8479 161.266 45.0294C162.045 44.172 162.649 43.1586 163.078 41.9894C163.507 40.7811 163.721 39.4755 163.721 38.0724C163.721 36.6693 163.507 35.3831 163.078 34.2139C162.649 33.0056 162.045 31.9923 161.266 31.1738C160.486 30.3164 159.531 29.6538 158.401 29.1861C157.271 28.6794 156.004 28.4261 154.601 28.4261C153.198 28.4261 151.931 28.6794 150.801 29.1861C149.671 29.6538 148.716 30.3164 147.936 31.1738C147.157 31.9923 146.553 33.0056 146.124 34.2139C145.695 35.3831 145.481 36.6693 145.481 38.0724ZM139.869 38.0724C139.869 36.0457 140.239 34.1554 140.979 32.4015C141.759 30.6476 142.811 29.1081 144.136 27.783C145.462 26.4578 147.021 25.425 148.813 24.6845C150.606 23.905 152.535 23.5152 154.601 23.5152C156.667 23.5152 158.596 23.905 160.389 24.6845C162.182 25.425 163.741 26.4578 165.066 27.783C166.391 29.1081 167.424 30.6476 168.164 32.4015C168.944 34.1554 169.334 36.0457 169.334 38.0724C169.334 40.0991 168.944 42.0088 168.164 43.8017C167.424 45.5556 166.391 47.0951 165.066 48.4202C163.741 49.7064 162.182 50.7392 160.389 51.5187C158.596 52.2593 156.667 52.6295 154.601 52.6295C152.535 52.6295 150.606 52.2593 148.813 51.5187C147.021 50.7392 145.462 49.7064 144.136 48.4202C142.811 47.0951 141.759 45.5556 140.979 43.8017C140.239 42.0088 139.869 40.0991 139.869 38.0724ZM190.658 31.1738C190.034 30.3943 189.255 29.7512 188.319 29.2445C187.423 28.6989 186.312 28.4261 184.987 28.4261C183.74 28.4261 182.649 28.6989 181.713 29.2445C180.817 29.7512 180.368 30.5112 180.368 31.5246C180.368 32.3431 180.622 33.0056 181.128 33.5123C181.674 34.019 182.298 34.4282 182.999 34.74C183.74 35.0518 184.519 35.2857 185.338 35.4416C186.156 35.5975 186.858 35.7339 187.442 35.8508C188.573 36.1236 189.625 36.4549 190.599 36.8447C191.613 37.2344 192.47 37.7411 193.172 38.3647C193.912 38.9883 194.477 39.7483 194.867 40.6447C195.296 41.5411 195.51 42.6324 195.51 43.9186C195.51 45.4776 195.179 46.8223 194.516 47.9525C193.854 49.0438 192.996 49.9403 191.944 50.6418C190.892 51.3434 189.683 51.85 188.319 52.1618C186.994 52.4736 185.65 52.6295 184.285 52.6295C181.986 52.6295 179.959 52.2788 178.205 51.5772C176.49 50.8757 174.951 49.5895 173.587 47.7187L177.562 44.4448C178.42 45.3022 179.375 46.0622 180.427 46.7248C181.479 47.3874 182.765 47.7187 184.285 47.7187C184.948 47.7187 185.611 47.6602 186.273 47.5433C186.975 47.3874 187.579 47.173 188.086 46.9002C188.631 46.5884 189.06 46.2181 189.372 45.7894C189.722 45.3217 189.898 44.7956 189.898 44.2109C189.898 43.4314 189.645 42.7883 189.138 42.2817C188.67 41.775 188.086 41.3852 187.384 41.1124C186.721 40.8006 186 40.5668 185.221 40.4109C184.48 40.216 183.818 40.0601 183.233 39.9432C182.103 39.6703 181.031 39.3585 180.018 39.0078C179.004 38.657 178.108 38.1893 177.328 37.6047C176.549 37.02 175.925 36.2795 175.458 35.3831C174.99 34.4867 174.756 33.3759 174.756 32.0507C174.756 30.6087 175.048 29.3615 175.633 28.3091C176.257 27.2178 177.056 26.3214 178.03 25.6199C179.043 24.9183 180.174 24.3922 181.421 24.0414C182.707 23.6906 183.993 23.5152 185.279 23.5152C187.15 23.5152 188.943 23.866 190.658 24.5675C192.373 25.2691 193.737 26.4383 194.75 28.0753L190.658 31.1738ZM202.312 24.2168H207.573V51.928H202.312V24.2168ZM201.084 14.2781C201.084 13.2258 201.454 12.3294 202.195 11.5889C202.974 10.8094 203.89 10.4196 204.942 10.4196C205.995 10.4196 206.891 10.8094 207.632 11.5889C208.411 12.3294 208.801 13.2258 208.801 14.2781C208.801 15.3305 208.411 16.2464 207.632 17.0259C206.891 17.7664 205.995 18.1367 204.942 18.1367C203.89 18.1367 202.974 17.7664 202.195 17.0259C201.454 16.2464 201.084 15.3305 201.084 14.2781ZM230.796 28.7768H223.255V41.3463C223.255 42.1258 223.274 42.9053 223.313 43.6848C223.352 44.4253 223.489 45.1074 223.722 45.731C223.995 46.3156 224.385 46.8028 224.892 47.1925C225.437 47.5433 226.217 47.7187 227.23 47.7187C227.854 47.7187 228.497 47.6602 229.16 47.5433C229.822 47.4264 230.426 47.212 230.972 46.9002V51.6941C230.348 52.0449 229.53 52.2788 228.516 52.3957C227.542 52.5516 226.782 52.6295 226.236 52.6295C224.21 52.6295 222.631 52.3567 221.501 51.8111C220.41 51.2264 219.591 50.4859 219.046 49.5895C218.539 48.6931 218.227 47.6992 218.11 46.6079C218.032 45.4776 217.993 44.3473 217.993 43.2171V28.7768H211.913V24.2168H217.993V16.4413H223.255V24.2168H230.796V28.7768ZM234.253 24.2168H240.333L248.576 45.8479H248.693L256.527 24.2168H262.198L249.044 57.8912C248.576 59.0994 248.089 60.1907 247.582 61.165C247.075 62.1784 246.471 63.0358 245.77 63.7374C245.068 64.4389 244.211 64.9846 243.197 65.3743C242.223 65.7641 241.015 65.959 239.573 65.959C238.793 65.959 237.994 65.9005 237.176 65.7836C236.396 65.7056 235.636 65.5108 234.896 65.199L235.539 60.405C236.591 60.8338 237.643 61.0481 238.696 61.0481C239.514 61.0481 240.196 60.9312 240.742 60.6973C241.327 60.5025 241.814 60.1907 242.203 59.7619C242.632 59.3722 242.983 58.9045 243.256 58.3588C243.529 57.8132 243.801 57.1896 244.074 56.4881L245.77 52.1034L234.253 24.2168ZM283.497 24.2168H288.758V51.928H283.497V24.2168ZM282.269 14.2781C282.269 13.2258 282.639 12.3294 283.38 11.5889C284.159 10.8094 285.075 10.4196 286.128 10.4196C287.18 10.4196 288.076 10.8094 288.817 11.5889C289.596 12.3294 289.986 13.2258 289.986 14.2781C289.986 15.3305 289.596 16.2464 288.817 17.0259C288.076 17.7664 287.18 18.1367 286.128 18.1367C285.075 18.1367 284.159 17.7664 283.38 17.0259C282.639 16.2464 282.269 15.3305 282.269 14.2781ZM311.865 31.1738C311.241 30.3943 310.462 29.7512 309.526 29.2445C308.63 28.6989 307.519 28.4261 306.194 28.4261C304.947 28.4261 303.855 28.6989 302.92 29.2445C302.024 29.7512 301.575 30.5112 301.575 31.5246C301.575 32.3431 301.829 33.0056 302.335 33.5123C302.881 34.019 303.505 34.4282 304.206 34.74C304.947 35.0518 305.726 35.2857 306.545 35.4416C307.363 35.5975 308.065 35.7339 308.649 35.8508C309.78 36.1236 310.832 36.4549 311.806 36.8447C312.82 37.2344 313.677 37.7411 314.379 38.3647C315.119 38.9883 315.684 39.7483 316.074 40.6447C316.503 41.5411 316.717 42.6324 316.717 43.9186C316.717 45.4776 316.386 46.8223 315.723 47.9525C315.061 49.0438 314.203 49.9403 313.151 50.6418C312.099 51.3434 310.89 51.85 309.526 52.1618C308.201 52.4736 306.856 52.6295 305.492 52.6295C303.193 52.6295 301.166 52.2788 299.412 51.5772C297.697 50.8757 296.158 49.5895 294.794 47.7187L298.769 44.4448C299.627 45.3022 300.581 46.0622 301.634 46.7248C302.686 47.3874 303.972 47.7187 305.492 47.7187C306.155 47.7187 306.817 47.6602 307.48 47.5433C308.182 47.3874 308.786 47.173 309.292 46.9002C309.838 46.5884 310.267 46.2181 310.579 45.7894C310.929 45.3217 311.105 44.7956 311.105 44.2109C311.105 43.4314 310.851 42.7883 310.345 42.2817C309.877 41.775 309.292 41.3852 308.591 41.1124C307.928 40.8006 307.207 40.5668 306.428 40.4109C305.687 40.216 305.025 40.0601 304.44 39.9432C303.31 39.6703 302.238 39.3585 301.225 39.0078C300.211 38.657 299.315 38.1893 298.535 37.6047C297.756 37.02 297.132 36.2795 296.664 35.3831C296.197 34.4867 295.963 33.3759 295.963 32.0507C295.963 30.6087 296.255 29.3615 296.84 28.3091C297.463 27.2178 298.262 26.3214 299.237 25.6199C300.25 24.9183 301.38 24.3922 302.628 24.0414C303.914 23.6906 305.2 23.5152 306.486 23.5152C308.357 23.5152 310.15 23.866 311.865 24.5675C313.58 25.2691 314.944 26.4383 315.957 28.0753L311.865 31.1738ZM41.4806 88.2168H47.3853L53.6408 108.912H53.7577L60.364 88.2168H65.9179L72.9334 108.912H73.0503L79.0135 88.2168H84.5674L75.6227 115.928H70.3026L62.9948 95.2323H62.8779L56.2716 115.928H50.6008L41.4806 88.2168ZM93.4414 102.072C93.4414 103.475 93.6558 104.781 94.0845 105.989C94.5132 107.159 95.1173 108.172 95.8968 109.029C96.6763 109.848 97.6312 110.51 98.7615 111.017C99.8918 111.485 101.158 111.719 102.562 111.719C103.965 111.719 105.231 111.485 106.362 111.017C107.492 110.51 108.447 109.848 109.226 109.029C110.006 108.172 110.61 107.159 111.039 105.989C111.467 104.781 111.682 103.475 111.682 102.072C111.682 100.669 111.467 99.3831 111.039 98.2139C110.61 97.0056 110.006 95.9923 109.226 95.1738C108.447 94.3164 107.492 93.6538 106.362 93.1861C105.231 92.6794 103.965 92.4261 102.562 92.4261C101.158 92.4261 99.8918 92.6794 98.7615 93.1861C97.6312 93.6538 96.6763 94.3164 95.8968 95.1738C95.1173 95.9923 94.5132 97.0056 94.0845 98.2139C93.6558 99.3831 93.4414 100.669 93.4414 102.072ZM87.829 102.072C87.829 100.046 88.1993 98.1554 88.9398 96.4015C89.7193 94.6476 90.7716 93.1081 92.0968 91.783C93.4219 90.4578 94.9809 89.425 96.7738 88.6845C98.5666 87.905 100.496 87.5152 102.562 87.5152C104.627 87.5152 106.556 87.905 108.349 88.6845C110.142 89.425 111.701 90.4578 113.026 91.783C114.351 93.1081 115.384 94.6476 116.125 96.4015C116.904 98.1554 117.294 100.046 117.294 102.072C117.294 104.099 116.904 106.009 116.125 107.802C115.384 109.556 114.351 111.095 113.026 112.42C111.701 113.706 110.142 114.739 108.349 115.519C106.556 116.259 104.627 116.63 102.562 116.63C100.496 116.63 98.5666 116.259 96.7738 115.519C94.9809 114.739 93.4219 113.706 92.0968 112.42C90.7716 111.095 89.7193 109.556 88.9398 107.802C88.1993 106.009 87.829 104.099 87.829 102.072ZM123.886 88.2168H129.147V92.4845H129.264C129.927 91.0035 131.077 89.8147 132.714 88.9183C134.351 87.9829 136.241 87.5152 138.384 87.5152C139.71 87.5152 140.976 87.7296 142.184 88.1583C143.432 88.5481 144.504 89.1717 145.4 90.0291C146.335 90.8866 147.076 91.9973 147.622 93.3615C148.167 94.6866 148.44 96.2651 148.44 98.0969V115.928H143.178V99.5585C143.178 98.2723 143.003 97.181 142.652 96.2846C142.301 95.3492 141.834 94.6087 141.249 94.063C140.664 93.4784 139.982 93.0692 139.203 92.8353C138.462 92.5625 137.683 92.4261 136.864 92.4261C135.773 92.4261 134.76 92.6015 133.824 92.9522C132.889 93.303 132.07 93.8681 131.369 94.6476C130.667 95.3882 130.122 96.3431 129.732 97.5123C129.342 98.6816 129.147 100.065 129.147 101.663V115.928H123.886V88.2168ZM184.141 115.928H178.879V111.953H178.762C177.749 113.434 176.346 114.583 174.553 115.402C172.799 116.22 170.987 116.63 169.116 116.63C166.972 116.63 165.024 116.259 163.27 115.519C161.555 114.778 160.074 113.745 158.827 112.42C157.618 111.095 156.683 109.556 156.02 107.802C155.358 106.048 155.027 104.138 155.027 102.072C155.027 100.007 155.358 98.0969 156.02 96.3431C156.683 94.5502 157.618 93.0107 158.827 91.7245C160.074 90.3994 161.555 89.3665 163.27 88.626C165.024 87.8855 166.972 87.5152 169.116 87.5152C171.104 87.5152 172.975 87.9439 174.728 88.8014C176.482 89.6199 177.827 90.7501 178.762 92.1922H178.879V71.7304H184.141V115.928ZM169.759 111.719C171.162 111.719 172.429 111.485 173.559 111.017C174.689 110.51 175.644 109.848 176.424 109.029C177.203 108.172 177.807 107.159 178.236 105.989C178.665 104.781 178.879 103.475 178.879 102.072C178.879 100.669 178.665 99.3831 178.236 98.2139C177.807 97.0056 177.203 95.9923 176.424 95.1738C175.644 94.3164 174.689 93.6538 173.559 93.1861C172.429 92.6794 171.162 92.4261 169.759 92.4261C168.356 92.4261 167.089 92.6794 165.959 93.1861C164.829 93.6538 163.874 94.3164 163.094 95.1738C162.315 95.9923 161.711 97.0056 161.282 98.2139C160.853 99.3831 160.639 100.669 160.639 102.072C160.639 103.475 160.853 104.781 161.282 105.989C161.711 107.159 162.315 108.172 163.094 109.029C163.874 109.848 164.829 110.51 165.959 111.017C167.089 111.485 168.356 111.719 169.759 111.719ZM196.086 104.002C196.086 105.21 196.34 106.321 196.846 107.334C197.392 108.308 198.094 109.146 198.951 109.848C199.809 110.549 200.802 111.095 201.933 111.485C203.063 111.875 204.232 112.069 205.44 112.069C207.077 112.069 208.5 111.699 209.708 110.959C210.916 110.179 212.027 109.166 213.041 107.919L217.016 110.959C214.093 114.739 210 116.63 204.739 116.63C202.556 116.63 200.569 116.259 198.776 115.519C197.022 114.778 195.521 113.765 194.274 112.479C193.066 111.154 192.13 109.614 191.468 107.86C190.805 106.067 190.474 104.138 190.474 102.072C190.474 100.007 190.825 98.0969 191.526 96.3431C192.267 94.5502 193.261 93.0107 194.508 91.7245C195.794 90.3994 197.314 89.3665 199.068 88.626C200.822 87.8855 202.732 87.5152 204.797 87.5152C207.253 87.5152 209.318 87.9439 210.994 88.8014C212.709 89.6588 214.112 90.7891 215.204 92.1922C216.295 93.5563 217.074 95.1153 217.542 96.8692C218.049 98.5841 218.302 100.338 218.302 102.131V104.002H196.086ZM212.69 99.7923C212.651 98.6231 212.456 97.5513 212.105 96.5769C211.793 95.6025 211.306 94.7646 210.644 94.063C209.981 93.3225 209.143 92.7574 208.13 92.3676C207.155 91.9389 206.006 91.7245 204.68 91.7245C203.394 91.7245 202.205 91.9779 201.114 92.4845C200.062 92.9522 199.165 93.5758 198.425 94.3553C197.684 95.1348 197.1 96.0118 196.671 96.9861C196.281 97.9215 196.086 98.8569 196.086 99.7923H212.69ZM259.185 92.7768H253.222V88.2168H259.185V82.0197C259.185 78.3171 259.887 75.5694 261.29 73.7765C262.732 71.9447 265.187 71.0288 268.656 71.0288C269.241 71.0288 269.845 71.0483 270.468 71.0873C271.131 71.1262 271.833 71.2432 272.573 71.438L271.989 76.115C271.482 75.9202 270.995 75.7838 270.527 75.7058C270.059 75.6279 269.553 75.5889 269.007 75.5889C268.033 75.5889 267.253 75.7448 266.668 76.0566C266.084 76.3294 265.616 76.7386 265.265 77.2843C264.954 77.8299 264.739 78.4925 264.622 79.272C264.544 80.0125 264.505 80.87 264.505 81.8444V88.2168H270.761V92.7768H264.447V115.928H259.185V92.7768ZM301.162 115.928H295.9V111.66H295.783C295.121 113.141 293.971 114.349 292.334 115.285C290.697 116.181 288.807 116.63 286.663 116.63C285.299 116.63 284.013 116.415 282.805 115.986C281.596 115.597 280.525 114.973 279.589 114.116C278.693 113.258 277.972 112.167 277.426 110.842C276.88 109.478 276.608 107.88 276.608 106.048V88.2168H281.869V104.586C281.869 105.872 282.045 106.983 282.395 107.919C282.746 108.815 283.214 109.556 283.798 110.14C284.383 110.686 285.046 111.095 285.786 111.368C286.566 111.602 287.365 111.719 288.183 111.719C289.274 111.719 290.288 111.543 291.223 111.193C292.159 110.842 292.977 110.296 293.679 109.556C294.38 108.776 294.926 107.802 295.316 106.632C295.705 105.463 295.9 104.08 295.9 102.482V88.2168H301.162V115.928ZM309.502 71.7304H314.764V115.928H309.502V71.7304Z" fill="#303030"/>
</g>
<path d="M143.432 27.8933C148.856 22.0518 157.765 21.1241 164.276 25.7228L164.462 25.8545C167.127 27.7371 169.117 30.4263 170.138 33.5257C172.599 40.9946 168.965 49.1084 161.755 52.2467L161.307 52.4415C158.329 53.7379 155.023 54.0821 151.841 53.4272L151.363 53.3288C143.661 51.7434 138.434 44.5523 139.303 36.7367C139.663 33.4935 141.056 30.4519 143.277 28.0606L143.432 27.8933Z" fill="#9AC1C4"/>
<path d="M231.916 107.691C231.916 107.691 231.923 107.691 231.929 107.691C231.929 105.912 231.916 104.127 231.929 102.348C231.95 100.029 233.715 98.6289 235.987 99.1158C237.15 99.366 238.171 99.9273 239.105 100.637C240.139 101.429 241.296 101.929 242.56 102.145C244.454 102.463 246.321 102.511 247.93 101.165C251.088 98.5139 251.055 91.2507 246.476 89.303C241.789 87.3148 237.306 87.8896 233.032 90.5C232.017 91.1154 232.065 91.1898 231.618 90.0402C230.955 88.3224 229.427 87.3689 227.567 87.5041C225.836 87.6326 224.456 88.8702 224.118 90.6556C223.99 91.3251 223.949 92.0149 223.909 92.6979C223.516 98.7438 223.117 104.79 222.745 110.842C222.664 112.168 222.448 113.52 222.935 114.812C223.692 116.8 225.802 118.106 227.716 117.808C230.184 117.429 231.808 115.752 231.896 113.338C231.97 111.458 231.909 109.571 231.909 107.684L231.916 107.691Z" fill="#FEC34E"/>
<rect width="30.4492" height="29.2312" transform="translate(120.314 87.4915)" fill="white"/>
<path d="M120.323 107.082C120.323 109.187 120.304 111.096 120.323 113.012C120.354 115.447 121.674 116.877 123.934 116.958C124.818 116.991 125.702 116.991 126.586 116.978C128.08 116.958 128.84 116.391 129.369 114.846C129.718 113.821 130.004 112.769 130.322 111.73C130.957 109.652 131.585 107.575 132.245 105.51C132.494 104.735 132.993 104.269 133.796 104.236C134.642 104.202 135.165 104.667 135.464 105.47C135.582 105.787 135.67 106.118 135.757 106.441C136.541 109.254 137.313 112.074 138.116 114.88C138.608 116.594 139.362 117.18 141.036 117.201C141.889 117.214 142.742 117.214 143.595 117.214C146.092 117.214 147.237 115.98 147.269 113.275C147.3 110.846 147.281 108.425 147.374 105.996C147.499 102.785 147.462 99.5879 146.353 96.4984C144.212 90.5083 138.135 86.3328 132.494 87.0883C126.088 87.945 121.194 93.22 120.472 99.9858C120.217 102.408 120.435 104.836 120.317 107.069L120.323 107.082Z" fill="#F37844"/>
<defs>
<filter id="filter0_d_3159_5944" x="36.6086" y="7.98374" width="284.98" height="115.954" filterUnits="userSpaceOnUse" color-interpolation-filters="sRGB">
<feFlood flood-opacity="0" result="BackgroundImageFix"/>
<feColorMatrix in="SourceAlpha" type="matrix" values="0 0 0 0 0 0 0 0 0 0 0 0 0 0 0 0 0 0 127 0" result="hardAlpha"/>
<feOffset dy="2.43594"/>
<feGaussianBlur stdDeviation="2.43594"/>
<feComposite in2="hardAlpha" operator="out"/>
<feColorMatrix type="matrix" values="0 0 0 0 0 0 0 0 0 0 0 0 0 0 0 0 0 0 0.04 0"/>
<feBlend mode="normal" in2="BackgroundImageFix" result="effect1_dropShadow_3159_5944"/>
<feBlend mode="normal" in="SourceGraphic" in2="effect1_dropShadow_3159_5944" result="shape"/>
</filter>
</defs>
</svg>
