<svg width="126" height="33" viewBox="0 0 126 33" fill="none" xmlns="http://www.w3.org/2000/svg">
<path d="M24.3436 19.752C24.3436 18.2259 24.3643 16.9817 24.3394 15.7417C24.3187 14.763 23.68 13.9791 22.8547 13.8921C22.2907 13.8298 21.7226 13.7925 21.1544 13.7884C20.3125 13.7759 19.8688 14.0953 19.6033 14.904C19.4001 15.5219 19.2425 16.1564 19.0601 16.7826C18.7159 17.9729 18.3758 19.1673 18.0233 20.3575C17.9071 20.7473 17.6583 21.0335 17.2187 21.0418C16.7584 21.0542 16.4764 20.7888 16.3354 20.37C16.2524 20.1336 16.1819 19.8889 16.1197 19.6442C15.7257 18.1388 15.3317 16.6333 14.9419 15.1279C14.6516 14.0082 14.2203 13.6598 13.084 13.6349C12.7273 13.6266 12.3665 13.6225 12.0098 13.6266C10.9233 13.6349 10.3178 14.087 10.069 15.1445C9.69157 16.7412 9.2105 18.3088 8.7626 19.8847C8.60086 20.457 8.45986 21.133 7.71336 21.1082C6.97102 21.0833 6.87563 20.3865 6.72219 19.8225C6.29503 18.2176 5.87616 16.6085 5.449 15.0076C5.20432 14.0953 4.77716 13.6722 3.93528 13.6805C2.78651 13.693 1.45526 13.2534 0.804152 14.7505C0.621676 15.1652 0.588497 15.6007 0.588497 16.0486C0.588497 18.1512 0.588498 20.2538 0.580204 22.3565C0.571909 24.0153 0.974186 25.5705 1.79118 27.0013C4.30852 31.4015 9.07364 31.8535 12.0389 29.1869C12.4453 28.8219 12.7315 28.9007 13.1172 29.2325C15.2447 31.0448 18.1352 31.2978 20.4618 29.8753C22.5893 28.5731 23.7174 26.5907 24.1901 24.1978C24.5012 22.6343 24.2689 21.0501 24.3436 19.7645V19.752Z" fill="#FEC34E"/>
<path d="M86.0961 19.859C86.1043 16.2676 85.7311 13.0825 85.8306 9.88506C85.8514 9.26298 85.5984 8.73628 85.1007 8.3506C84.5367 7.91099 83.9022 7.82391 83.2594 8.11006C82.4673 8.46672 82.1189 9.151 82.094 9.98459C82.0525 11.349 82.0484 12.7134 81.953 14.0779C81.8825 15.0359 81.8825 15.0649 81.0448 14.6336C78.7182 13.4475 76.2962 13.207 73.8287 14.053C67.2554 16.3173 65.3808 24.5122 70.3409 29.3644C73.0407 32.002 76.2962 32.707 79.8338 31.467C83.1723 30.2975 85.1671 27.8382 85.8348 24.3587C86.1458 22.7413 86.1334 21.0991 86.0961 19.8549V19.859Z" fill="#FEC34E"/>
<path d="M47.32 25.8309C47.32 27.1248 47.3075 28.2985 47.32 29.4763C47.3407 30.9734 48.2199 31.8526 49.7253 31.9024C50.3142 31.9231 50.9032 31.9231 51.4921 31.9148C52.4874 31.9024 52.9933 31.554 53.3458 30.6043C53.5781 29.9739 53.7689 29.327 53.9804 28.6883C54.4034 27.411 54.8222 26.1336 55.2618 24.8646C55.4277 24.3877 55.7595 24.1015 56.2945 24.0808C56.8585 24.0601 57.2069 24.3462 57.4059 24.8397C57.4847 25.0346 57.5428 25.2379 57.6009 25.4369C58.1234 27.1663 58.6377 28.8998 59.1726 30.6251C59.5003 31.6784 60.0021 32.0392 61.1177 32.0517C61.6858 32.06 62.254 32.06 62.8222 32.06C64.4852 32.06 65.2483 31.301 65.269 29.638C65.2897 28.145 65.2773 26.6562 65.3395 25.1632C65.4225 23.1891 65.3976 21.2234 64.6594 19.324C63.2327 15.6413 59.1851 13.0742 55.4277 13.5386C51.1603 14.0653 47.9006 17.3084 47.4195 21.4681C47.2495 22.9569 47.3946 24.4499 47.3158 25.8226L47.32 25.8309Z" fill="#FEC34E"/>
<path d="M27.0661 22.5071C26.9708 27.4464 30.9272 31.5521 35.9992 31.6185C40.9551 31.6848 45.0152 27.886 45.1479 22.7062C45.2764 17.7918 41.1915 13.628 36.2273 13.5243C31.2755 13.4206 27.1615 17.4558 27.0661 22.5071Z" fill="#FEC34E"/>
<path d="M100.552 26.8688C101.92 26.9311 103.185 26.6947 104.421 26.3504C105.354 26.0933 106.122 25.5874 106.341 24.5506C106.665 23.041 106.615 21.5356 106.146 20.0633C104.529 15.0079 99.4445 12.4076 94.3808 14.0292C89.7152 15.5221 87.003 20.9923 88.666 25.6039C90.0221 29.3696 92.7842 31.3976 96.695 31.8662C98.2004 32.0487 99.6768 31.7376 101 30.9289C101.41 30.6801 101.896 30.3649 101.667 29.7885C101.448 29.2244 100.896 29.382 100.452 29.4567C99.4736 29.6226 98.4948 29.7263 97.4995 29.6682C96.3549 29.6018 95.2932 29.2825 94.4555 28.4655C93.6551 27.6858 93.9288 26.6947 95.0071 26.4002C95.4964 26.2675 95.9941 26.2468 96.5083 26.3131C97.8811 26.4915 99.2082 26.9974 100.552 26.8688Z" fill="#FEC34E"/>
<path d="M114.249 26.0141C114.249 26.0141 114.253 26.0141 114.257 26.0141C114.257 24.9234 114.249 23.8285 114.257 22.7378C114.27 21.3153 115.352 20.4568 116.746 20.7554C117.459 20.9089 118.085 21.2531 118.657 21.6886C119.292 22.1738 120.001 22.4807 120.777 22.6134C121.938 22.8083 123.082 22.8373 124.07 22.012C126.006 20.3863 125.986 15.9323 123.178 14.7379C120.304 13.5186 117.554 13.8711 114.933 15.4719C114.311 15.8493 114.34 15.8949 114.066 15.1899C113.66 14.1365 112.723 13.5518 111.582 13.6347C110.521 13.7135 109.675 14.4725 109.467 15.5673C109.388 15.9779 109.364 16.4009 109.339 16.8198C109.098 20.5273 108.853 24.2349 108.625 27.9467C108.576 28.7595 108.443 29.589 108.742 30.3811C109.206 31.6003 110.5 32.4007 111.674 32.2183C113.187 31.986 114.183 30.9575 114.237 29.477C114.282 28.3241 114.245 27.167 114.245 26.0099L114.249 26.0141Z" fill="#FEC34E"/>
<path d="M1.09676 5.94515H1.08017C1.08017 6.55478 1.06773 7.16442 1.08017 7.77406C1.09676 8.49981 1.37047 8.83574 1.98426 8.93112C3.01276 9.08872 3.42748 8.91868 3.68046 8.18049C3.93344 7.44643 4.14494 6.69578 4.38548 5.95344C4.48086 5.65069 4.57625 5.31478 4.97853 5.31478C5.40983 5.31478 5.51766 5.66314 5.6089 5.99077C5.80382 6.65847 5.98629 7.32616 6.16462 7.99801C6.38857 8.83574 6.67058 9.06382 7.54564 9.07627C8.44972 9.08871 8.75661 8.86062 8.99715 8.0063C9.18377 7.3386 9.3704 6.6709 9.57775 6.00735C9.68143 5.67143 9.76438 5.25672 10.2289 5.2733C10.6477 5.28989 10.7348 5.65899 10.8302 5.98662C11.0293 6.67505 11.2159 7.36349 11.4191 8.04777C11.6762 8.91039 12.8831 9.35829 13.6503 8.88136C13.8784 8.74036 14.0567 8.53299 14.0567 8.27586C14.0567 6.62114 14.4383 4.95397 13.9696 3.31998C13.1443 0.433542 10.0879 -0.590823 8.00183 0.976813C7.64102 1.24638 7.35072 1.1427 7.02724 0.927049C4.34816 -0.843799 1.32485 1.20491 1.09676 4.05403C1.04699 4.68026 1.08847 5.31477 1.08847 5.94515H1.09676Z" fill="#FEC34E"/>
<path d="M25.8433 2.87611C25.835 0.657369 25.4534 0.296567 23.5955 0.404394C23.0024 0.437572 22.6085 0.678108 22.3928 1.24627C22.1191 1.97618 21.8205 2.69363 21.5302 3.41524C21.3975 3.75116 21.1901 4.0083 20.7961 4.00415C20.3939 4 20.2155 3.72629 20.0911 3.38622C19.8174 2.63558 19.5561 1.88079 19.2534 1.14259C18.8553 0.176299 16.7568 -0.0642483 16.1057 0.769336C15.9273 0.997431 15.8859 1.26286 15.8817 1.54072C15.8734 2.06741 15.8817 2.5941 15.8693 3.11664C15.8195 4.78381 16.6573 5.94088 17.9926 6.81179C18.9631 7.44216 20.0662 7.59561 21.1901 7.64953C21.4265 7.66197 21.6795 7.67026 21.7583 7.94397C21.8454 8.24672 21.6214 8.40431 21.3975 8.54117C21.0491 8.75682 20.6676 8.83976 20.257 8.8605C19.2368 8.90612 18.3078 8.62411 17.4245 8.12645C17.101 7.94398 16.7651 7.92324 16.5245 8.26746C16.2965 8.59508 16.4457 8.8688 16.7153 9.0886C18.764 10.735 22.7578 10.8719 24.5784 7.85689C25.5613 6.22704 25.7603 4.42302 25.8433 2.88026V2.87611Z" fill="#FEC34E"/>
</svg>
